<?xml version="1.0" encoding="UTF-8"?>
<svg version="1.1" xmlns="http://www.w3.org/2000/svg" width="256" height="256">
<path d="M0 0 C1.9795166 0.00845947 1.9795166 0.00845947 3.99902344 0.01708984 C32.40027926 0.36992217 59.38677702 9.96300929 81.25 28.3125 C82.095625 29.01890625 82.94125 29.7253125 83.8125 30.453125 C103.01187134 47.13257885 116.18181138 67.23806714 123.625 91.5625 C123.86379883 92.34133545 124.10259766 93.1201709 124.34863281 93.92260742 C127.69367773 105.53707778 128.61646107 117.07780597 128.5625 129.125 C128.56034485 129.78302612 128.5581897 130.44105225 128.55596924 131.11901855 C128.50303843 141.20891589 128.01067421 150.56091696 125.25 160.3125 C125.06195801 161.00102051 124.87391602 161.68954102 124.68017578 162.39892578 C118.53628279 184.40843266 106.95664632 202.84416013 91.25 219.3125 C90.48067139 220.12557617 90.48067139 220.12557617 89.69580078 220.95507812 C85.56996415 225.21505985 81.23672931 228.79952339 76.375 232.1875 C75.63886475 232.70070801 74.90272949 233.21391602 74.14428711 233.74267578 C45.21294195 253.51822052 10.82569084 261.27903884 -24 255.1875 C-26.59687241 254.62138181 -29.18162009 253.99635725 -31.75 253.3125 C-32.44351563 253.12977539 -33.13703125 252.94705078 -33.8515625 252.75878906 C-64.90573146 244.28567576 -91.52277148 224.42141526 -108.75 197.3125 C-109.45640625 196.21679688 -110.1628125 195.12109375 -110.890625 193.9921875 C-123.34318201 173.50725593 -128.07557194 151.29859914 -128.1875 127.5625 C-128.19385468 126.87524841 -128.20020935 126.18799683 -128.20675659 125.47991943 C-128.40771205 90.53872389 -113.16556938 59.86147071 -89 35.1875 C-65.26494899 11.62343255 -33.12497341 -0.14882851 0 0 Z " fill="#F6D949" transform="translate(127.75,-0.3125)"/>
<path d="M0 0 C2.4375 1.75 2.4375 1.75 5 4 C10.2919364 7.97783139 14.11299694 9.18623557 20.71484375 8.81640625 C25.74425885 7.56652782 29.34343462 4.8668829 33.34375 1.65234375 C36 0 36 0 38.33911133 0.28735352 C43.07486248 1.55569535 47.60911245 3.25613386 52.1875 5 C53.19748047 5.34933594 54.20746094 5.69867188 55.24804688 6.05859375 C62.40348111 8.82504257 62.40348111 8.82504257 64.09545898 12.15771484 C64.62042682 14.46890902 64.88199578 16.63555523 65 19 C65.19142578 20.28777344 65.19142578 20.28777344 65.38671875 21.6015625 C65.48597656 22.26929687 65.58523437 22.93703125 65.6875 23.625 C66.70758447 27.85317622 68.27509429 30.64168697 71.421875 33.65625 C74.39106905 35.20382993 76.76400219 35.18940164 80.06494141 35.27539062 C84.15734649 35.45676161 87.50984611 35.69887314 91 38 C95.99499807 44.94007378 99.73411754 54.53876826 101 63 C99.84170213 66.92106839 97.95251317 69.42811671 95.375 72.5625 C92.00171752 77.36622505 90.85707443 81.03481238 91.15234375 86.90234375 C92.54382869 91.98735552 95.684603 95.45537779 99.12890625 99.30859375 C101 102 101 102 100.72631836 104.35717773 C99.47351141 108.9157106 97.76146841 113.24222775 96 117.625 C95.47599609 119.05585938 95.47599609 119.05585938 94.94140625 120.515625 C92.18250548 127.2935473 92.18250548 127.2935473 88.84228516 129.2890625 C86.54738773 130.0772378 84.3931551 130.6111188 82 131 C81.19062988 131.13180664 80.38125977 131.26361328 79.54736328 131.39941406 C78.8304834 131.51510742 78.11360352 131.63080078 77.375 131.75 C73.12034222 132.71696768 70.38752756 134.27372333 67.40234375 137.46875 C65.51341987 140.87828391 65.17557405 144.31990951 64.6875 148.125 C63.69181044 155.28363679 63.69181044 155.28363679 61.12890625 157.9375 C58.46519426 159.26716904 55.84666412 160.12520649 53 161 C51.71017899 161.53264955 50.42658082 162.08053265 49.1484375 162.640625 C38.97383237 167.03745509 38.97383237 167.03745509 35.8671875 166.91796875 C33.2427221 165.62769811 31.23241337 163.82109878 29 161.9375 C23.96179218 158.24415243 20.32199424 156.74252375 14.05859375 157.1171875 C9.03981515 158.56577494 5.58978669 161.68940791 1.7890625 165.12890625 C-1 167 -1 167 -3.6796875 167.03515625 C-8.47437823 165.5403409 -13.10914472 163.79228905 -17.75 161.875 C-19.18666016 161.32585937 -19.18666016 161.32585937 -20.65234375 160.765625 C-27.58963981 157.88894652 -27.58963981 157.88894652 -29.59765625 153.5390625 C-29.73042969 152.37117187 -29.86320312 151.20328125 -30 150 C-30.12761719 149.0615625 -30.25523438 148.123125 -30.38671875 147.15625 C-30.53560547 145.84140625 -30.53560547 145.84140625 -30.6875 144.5 C-31.59771074 139.69830855 -32.8127846 136.62105986 -36.421875 133.27734375 C-39.37468576 131.81436024 -41.81147833 131.7914734 -45.06469727 131.67822266 C-49.12380509 131.46924936 -52.50580567 131.22739158 -56 129 C-60.9379295 122.35032751 -66.64507185 110.7400549 -65.69506836 102.28662109 C-64.82256618 99.41628199 -63.37142687 97.78164301 -61.4375 95.5 C-57.81333844 90.43218903 -56.92619972 86.51115841 -57.21875 80.31640625 C-58.4077663 75.26903207 -61.10961123 71.73365731 -64.34765625 67.75390625 C-66 65 -66 65 -66.0078125 62.32421875 C-64.54783748 57.50856471 -62.75208695 52.89104112 -60.8125 48.25 C-60.43802734 47.29222656 -60.06355469 46.33445313 -59.67773438 45.34765625 C-56.78345659 38.42676941 -56.78345659 38.42676941 -53.07421875 36.40625 C-51.55248047 36.20515625 -51.55248047 36.20515625 -50 36 C-49.01 35.86078125 -48.02 35.7215625 -47 35.578125 C-46.01 35.46984375 -45.02 35.3615625 -44 35.25 C-39.48954054 34.47869466 -36.14436022 33.86633693 -33.1015625 30.31640625 C-31.20786833 26.33427631 -30.60405767 21.99192432 -30.02319336 17.64990234 C-29.47614806 13.67948786 -29.12704275 11.53534565 -26 9 C-22.64537519 7.21193933 -19.12400004 5.79484664 -15.625 4.3125 C-14.67882812 3.89677734 -13.73265625 3.48105469 -12.7578125 3.05273438 C-11.84 2.66021484 -10.9221875 2.26769531 -9.9765625 1.86328125 C-9.14205566 1.50532471 -8.30754883 1.14736816 -7.44775391 0.77856445 C-4.78111809 -0.06962043 -2.78080164 -0.26822122 0 0 Z " fill="#F5D949" transform="translate(108,45)"/>
<path d="M0 0 C1.9795166 0.00845947 1.9795166 0.00845947 3.99902344 0.01708984 C32.40027926 0.36992217 59.38677702 9.96300929 81.25 28.3125 C82.095625 29.01890625 82.94125 29.7253125 83.8125 30.453125 C103.01187134 47.13257885 116.18181138 67.23806714 123.625 91.5625 C123.86379883 92.34133545 124.10259766 93.1201709 124.34863281 93.92260742 C127.69367773 105.53707778 128.61646107 117.07780597 128.5625 129.125 C128.56034485 129.78302612 128.5581897 130.44105225 128.55596924 131.11901855 C128.50303843 141.20891589 128.01067421 150.56091696 125.25 160.3125 C125.06195801 161.00102051 124.87391602 161.68954102 124.68017578 162.39892578 C118.53628279 184.40843266 106.95664632 202.84416013 91.25 219.3125 C90.48067139 220.12557617 90.48067139 220.12557617 89.69580078 220.95507812 C85.56996415 225.21505985 81.23672931 228.79952339 76.375 232.1875 C75.63886475 232.70070801 74.90272949 233.21391602 74.14428711 233.74267578 C45.21294195 253.51822052 10.82569084 261.27903884 -24 255.1875 C-26.59687241 254.62138181 -29.18162009 253.99635725 -31.75 253.3125 C-32.44351563 253.12977539 -33.13703125 252.94705078 -33.8515625 252.75878906 C-64.90573146 244.28567576 -91.52277148 224.42141526 -108.75 197.3125 C-109.45640625 196.21679688 -110.1628125 195.12109375 -110.890625 193.9921875 C-123.34318201 173.50725593 -128.07557194 151.29859914 -128.1875 127.5625 C-128.19385468 126.87524841 -128.20020935 126.18799683 -128.20675659 125.47991943 C-128.40771205 90.53872389 -113.16556938 59.86147071 -89 35.1875 C-65.26494899 11.62343255 -33.12497341 -0.14882851 0 0 Z M-88.75 53.3125 C-109.82710872 78.91745162 -118.28484702 109.70804776 -115.56396484 142.55859375 C-112.06246425 172.28212624 -95.90953488 199.79070751 -73.04589844 218.72363281 C-56.68719629 231.60692822 -38.26747171 239.67681418 -17.75 243.3125 C-17.00878906 243.44527344 -16.26757812 243.57804688 -15.50390625 243.71484375 C13.41161828 247.82952853 44.3040702 239.87057552 67.84765625 222.7421875 C93.3644703 203.56566356 110.80129932 176.23577617 115.47827148 144.40844727 C119.41780135 113.69139701 111.4294834 82.53147899 92.52001953 57.90234375 C81.51667102 44.12806357 68.81933184 33.55073147 53.25 25.3125 C52.44433594 24.85230469 51.63867188 24.39210938 50.80859375 23.91796875 C39.04810605 17.47526679 24.65479874 13.20966904 11.265625 13.07421875 C10.49176453 13.066147 9.71790405 13.05807526 8.92059326 13.04975891 C7.27992968 13.03595669 5.63923785 13.02521734 3.99853516 13.01733398 C2.35424111 13.00592643 0.70998068 12.98565762 -0.93408203 12.95581055 C-35.05519843 12.33799952 -66.40181934 27.67531254 -88.75 53.3125 Z " fill="#0F2737" transform="translate(127.75,-0.3125)"/>
<path d="M0 0 C2.4375 1.75 2.4375 1.75 5 4 C10.2919364 7.97783139 14.11299694 9.18623557 20.71484375 8.81640625 C25.74425885 7.56652782 29.34343462 4.8668829 33.34375 1.65234375 C36 0 36 0 38.33911133 0.28735352 C43.07486248 1.55569535 47.60911245 3.25613386 52.1875 5 C53.19748047 5.34933594 54.20746094 5.69867188 55.24804688 6.05859375 C62.40348111 8.82504257 62.40348111 8.82504257 64.09545898 12.15771484 C64.62042682 14.46890902 64.88199578 16.63555523 65 19 C65.19142578 20.28777344 65.19142578 20.28777344 65.38671875 21.6015625 C65.48597656 22.26929687 65.58523437 22.93703125 65.6875 23.625 C66.70758447 27.85317622 68.27509429 30.64168697 71.421875 33.65625 C74.39106905 35.20382993 76.76400219 35.18940164 80.06494141 35.27539062 C84.15734649 35.45676161 87.50984611 35.69887314 91 38 C95.99499807 44.94007378 99.73411754 54.53876826 101 63 C99.84170213 66.92106839 97.95251317 69.42811671 95.375 72.5625 C92.00171752 77.36622505 90.85707443 81.03481238 91.15234375 86.90234375 C92.54382869 91.98735552 95.684603 95.45537779 99.12890625 99.30859375 C101 102 101 102 100.72631836 104.35717773 C99.47351141 108.9157106 97.76146841 113.24222775 96 117.625 C95.47599609 119.05585938 95.47599609 119.05585938 94.94140625 120.515625 C92.18250548 127.2935473 92.18250548 127.2935473 88.84228516 129.2890625 C86.54738773 130.0772378 84.3931551 130.6111188 82 131 C81.19062988 131.13180664 80.38125977 131.26361328 79.54736328 131.39941406 C78.8304834 131.51510742 78.11360352 131.63080078 77.375 131.75 C73.12034222 132.71696768 70.38752756 134.27372333 67.40234375 137.46875 C65.51341987 140.87828391 65.17557405 144.31990951 64.6875 148.125 C63.69181044 155.28363679 63.69181044 155.28363679 61.12890625 157.9375 C58.46519426 159.26716904 55.84666412 160.12520649 53 161 C51.71017899 161.53264955 50.42658082 162.08053265 49.1484375 162.640625 C38.97383237 167.03745509 38.97383237 167.03745509 35.8671875 166.91796875 C33.2427221 165.62769811 31.23241337 163.82109878 29 161.9375 C23.96179218 158.24415243 20.32199424 156.74252375 14.05859375 157.1171875 C9.03981515 158.56577494 5.58978669 161.68940791 1.7890625 165.12890625 C-1 167 -1 167 -3.6796875 167.03515625 C-8.47437823 165.5403409 -13.10914472 163.79228905 -17.75 161.875 C-19.18666016 161.32585937 -19.18666016 161.32585937 -20.65234375 160.765625 C-27.58963981 157.88894652 -27.58963981 157.88894652 -29.59765625 153.5390625 C-29.73042969 152.37117187 -29.86320312 151.20328125 -30 150 C-30.12761719 149.0615625 -30.25523438 148.123125 -30.38671875 147.15625 C-30.53560547 145.84140625 -30.53560547 145.84140625 -30.6875 144.5 C-31.59771074 139.69830855 -32.8127846 136.62105986 -36.421875 133.27734375 C-39.37468576 131.81436024 -41.81147833 131.7914734 -45.06469727 131.67822266 C-49.12380509 131.46924936 -52.50580567 131.22739158 -56 129 C-60.9379295 122.35032751 -66.64507185 110.7400549 -65.69506836 102.28662109 C-64.82256618 99.41628199 -63.37142687 97.78164301 -61.4375 95.5 C-57.81333844 90.43218903 -56.92619972 86.51115841 -57.21875 80.31640625 C-58.4077663 75.26903207 -61.10961123 71.73365731 -64.34765625 67.75390625 C-66 65 -66 65 -66.0078125 62.32421875 C-64.54783748 57.50856471 -62.75208695 52.89104112 -60.8125 48.25 C-60.43802734 47.29222656 -60.06355469 46.33445313 -59.67773438 45.34765625 C-56.78345659 38.42676941 -56.78345659 38.42676941 -53.07421875 36.40625 C-51.55248047 36.20515625 -51.55248047 36.20515625 -50 36 C-49.01 35.86078125 -48.02 35.7215625 -47 35.578125 C-46.01 35.46984375 -45.02 35.3615625 -44 35.25 C-39.48954054 34.47869466 -36.14436022 33.86633693 -33.1015625 30.31640625 C-31.20786833 26.33427631 -30.60405767 21.99192432 -30.02319336 17.64990234 C-29.47614806 13.67948786 -29.12704275 11.53534565 -26 9 C-22.64537519 7.21193933 -19.12400004 5.79484664 -15.625 4.3125 C-14.67882812 3.89677734 -13.73265625 3.48105469 -12.7578125 3.05273438 C-11.84 2.66021484 -10.9221875 2.26769531 -9.9765625 1.86328125 C-9.14205566 1.50532471 -8.30754883 1.14736816 -7.44775391 0.77856445 C-4.78111809 -0.06962043 -2.78080164 -0.26822122 0 0 Z M-17 19 C-18.16744093 21.00013177 -18.51933123 22.45388422 -18.75390625 24.7421875 C-19.612141 32.61615077 -22.98710015 37.37024029 -28.64453125 42.64453125 C-32.15312959 45.45923736 -35.49441123 45.96157092 -39.875 46.4375 C-45.30098459 47.05405931 -45.30098459 47.05405931 -49.1015625 50.65234375 C-51.25848781 55.62291186 -52.77554845 59.69985538 -51 65 C-50.02079892 66.24231051 -48.9956851 67.44923878 -47.9375 68.625 C-43.40559149 75.16986787 -43.7746748 83.17225248 -44.56738281 90.83300781 C-45.40495472 95.02843005 -47.66039601 97.87522626 -50.56640625 100.89453125 C-52.30926564 102.98655348 -52.30926564 102.98655348 -51.7890625 105.96875 C-51.52867188 106.9690625 -51.26828125 107.969375 -51 109 C-50.84144531 109.80824219 -50.68289062 110.61648437 -50.51953125 111.44921875 C-49.66694951 114.14827585 -48.89801435 115.87593001 -47 118 C-43.97508423 118.90930215 -43.97508423 118.90930215 -40.5 119.3125 C-34.06654484 120.29501512 -30.71298841 122.18244696 -26.25 126.6875 C-25.49879883 127.42770386 -25.49879883 127.42770386 -24.73242188 128.18286133 C-20.1748837 133.10408344 -19.34545774 138.08828478 -18.5625 144.6875 C-16.37664375 149.32151525 -13.39248262 150.25566925 -8.82421875 152.25 C-5.50219525 153.13219711 -4.21835513 153.2169851 -1 152 C0.24553968 151.01322847 1.47578269 150.00702272 2.6953125 148.98828125 C7.31378822 145.37339835 11.1318205 145.03072879 16.875 145.1875 C18.19781982 145.19994751 18.19781982 145.19994751 19.54736328 145.21264648 C26.04013801 145.47742489 30.17755326 146.93172019 34.9296875 151.56640625 C36.98818106 153.31205103 36.98818106 153.31205103 39.9609375 152.78515625 C41.46527344 152.39650391 41.46527344 152.39650391 43 152 C43.81984375 151.85304687 44.6396875 151.70609375 45.484375 151.5546875 C48.27886546 150.71634036 49.88209852 150.044273 52 148 C52.82385681 144.68992642 53.25924888 141.70095289 53.39550781 138.30810547 C53.48828125 136.3359375 53.48828125 136.3359375 54 133 C55.74609375 131.8203125 55.74609375 131.8203125 58 131 C59.63132271 129.55233614 61.21280208 128.04724497 62.75 126.5 C63.54921875 125.7059375 64.3484375 124.911875 65.171875 124.09375 C67.21923609 122.21216538 67.21923609 122.21216538 67 120 C67.91523438 119.93941406 68.83046875 119.87882812 69.7734375 119.81640625 C70.96195312 119.73261719 72.15046875 119.64882812 73.375 119.5625 C74.55835938 119.48128906 75.74171875 119.40007812 76.9609375 119.31640625 C79.91518901 119.18915064 79.91518901 119.18915064 82 118 C83.4418043 115.38104568 83.4418043 115.38104568 84.75 112.25 C85.21921875 111.20328125 85.6884375 110.1565625 86.171875 109.078125 C87.17822362 105.33754616 86.8989407 104.3282509 85 101 C84.59458984 100.49799072 84.18917969 99.99598145 83.77148438 99.47875977 C79.74657125 94.4745579 79.14047924 90.54209782 79.25 84.1875 C79.25567993 82.8579126 79.25567993 82.8579126 79.26147461 81.50146484 C79.49284051 74.96913409 80.90059087 70.85436491 85.56640625 66.0703125 C87.31238088 64.01128799 87.31238088 64.01128799 86.78515625 61.03515625 C86.52605469 60.03355469 86.26695312 59.03195313 86 58 C85.85304687 57.19175781 85.70609375 56.38351563 85.5546875 55.55078125 C84.71631016 52.78991794 83.97957354 51.12921733 82 49 C78.97700258 48.22863978 76.03014322 47.81214522 72.93432617 47.45898438 C65.71142306 46.34439833 62.41410639 42.04787262 58.07421875 36.51953125 C57.38972656 35.68808594 56.70523438 34.85664062 56 34 C55.34 34 54.68 34 54 34 C54.04125 32.824375 54.0825 31.64875 54.125 30.4375 C54.0571225 26.1687595 53.98184477 22.89028788 52 19 C47.82603011 16.25575032 43.46341893 13.82796331 38.37109375 14.18359375 C35.74181184 15.0888984 34.42889365 16.21399572 32.375 18.0625 C25.82955017 22.59481148 17.83624065 22.22279158 10.17578125 21.42822266 C5.94536021 20.59561959 3.02971685 18.38471378 -0.08984375 15.53125 C-5.06259237 11.54491573 -12.42770963 15.96159195 -17 19 Z " fill="#122A37" transform="translate(108,45)"/>
<path d="M0 0 C4.23358353 0.98911906 7.26634296 2.77416599 11 5 C10.30584945 8.80061771 8.60472152 11.76831189 6.7265625 15.12109375 C6.23994644 15.99375633 6.23994644 15.99375633 5.74349976 16.88404846 C4.70835825 18.73767647 3.66669638 20.58754937 2.625 22.4375 C1.93188012 23.67750442 1.23916754 24.91773661 0.546875 26.15820312 C-2.24099968 31.14333786 -5.03830604 36.11529704 -8 41 C-7.29617187 41.10957031 -6.59234375 41.21914062 -5.8671875 41.33203125 C2.1520989 42.61972345 10.0717053 44.24076301 18 46 C16.60690747 49.78933166 14.8528337 53.04588279 12.69921875 56.45703125 C12.05146484 57.48763672 11.40371094 58.51824219 10.73632812 59.58007812 C10.06021484 60.64677734 9.38410156 61.71347656 8.6875 62.8125 C7.69073242 64.39514648 7.69073242 64.39514648 6.67382812 66.00976562 C5.37966157 68.06430304 4.08397997 70.11788707 2.78662109 72.17041016 C0.51212863 75.77267412 -1.74561111 79.38512884 -4 83 C5.12302011 83.58232043 11.96396346 80.76327711 18.98828125 74.96484375 C22.0169363 72.0067593 24.1483675 68.7925003 26 65 C26.36222656 64.27167969 26.72445312 63.54335937 27.09765625 62.79296875 C29.91189374 54.08223365 29.22949493 43.27492523 25.25 35.125 C23.22968529 31.54353301 21.00196746 28.80618698 18 26 C19.66751148 22.05860922 22.22710649 19.2107188 25 16 C33.95834705 22.80834376 40.1603141 32.80050866 42 44 C43.10070432 58.45351085 39.56804435 70.64686411 30.41015625 81.96484375 C22.37438573 90.60566053 11.99940558 95.67618216 0.2734375 96.31640625 C-8.68342332 96.61387587 -17.16394957 96.8803472 -25 92 C-25.92039062 91.42894531 -26.84078125 90.85789062 -27.7890625 90.26953125 C-38.24372076 83.21052345 -46.09394923 73.52677475 -49 61 C-51.06645996 45.3380746 -48.22648014 33.56739653 -38.609375 21.01953125 C-38.07828125 20.35308594 -37.5471875 19.68664062 -37 19 C-33.22480438 20.76229689 -30.69270677 22.76875188 -28 26 C-28.34360568 29.13699261 -29.67676499 31.24715612 -31.4375 33.8125 C-36.54328584 41.85485052 -37.35171099 50.64353631 -35.3828125 59.90234375 C-32.71971811 68.30405304 -27.68398225 75.10485512 -20 79.5625 C-19.01 80.036875 -18.02 80.51125 -17 81 C-16.7834375 80.36320312 -16.566875 79.72640625 -16.34375 79.0703125 C-14.45580848 74.75658567 -11.9813861 70.86958278 -9.5 66.875 C-9.00113281 66.06417969 -8.50226563 65.25335938 -7.98828125 64.41796875 C-6.03329821 61.2470177 -4.06659593 58.0998939 -2 55 C-2.71542969 54.89042969 -3.43085937 54.78085938 -4.16796875 54.66796875 C-11.86731342 53.44284664 -19.42355638 51.83301055 -27 50 C-25.76307815 45.96132688 -24.29400855 42.49005412 -22.12890625 38.8671875 C-21.55930176 37.90490234 -20.98969727 36.94261719 -20.40283203 35.95117188 C-19.79552246 34.93603516 -19.18821289 33.92089844 -18.5625 32.875 C-12.15086028 22.03401499 -5.99514359 11.07596274 0 0 Z " fill="#122A37" transform="translate(129,81)"/>
</svg>
